<svg id="Layer_1" data-name="Layer 1" xmlns="http://www.w3.org/2000/svg" viewBox="0 0 1363.43 878.18"><defs><style>.cls-1{fill:#f4e1ce;}.cls-2{fill:#f8c26b;}.cls-3{fill:#e6ba85;}.cls-4{fill:#5d6c82;}.cls-5{fill:#e94e4e;}.cls-6{fill:#92d5d8;}.cls-7{fill:#eac5c5;}.cls-10,.cls-8,.cls-9{fill:none;}.cls-8,.cls-9{stroke:#fff;stroke-linecap:round;stroke-width:7px;}.cls-10,.cls-8{stroke-miterlimit:10;}.cls-9{stroke-linejoin:round;}.cls-10{stroke:#addcd2;stroke-width:3px;}.cls-11{fill:#fff;}.cls-12{fill:#5c86c4;}</style></defs><path class="cls-1" d="M1343.39,727.47a45.8,45.8,0,0,1-45.81,45.8H117.26a45.8,45.8,0,0,1-45.81-45.8h0a45.81,45.81,0,0,1,45.81-45.81H1297.58a45.81,45.81,0,0,1,45.81,45.81Z" transform="translate(-32.45 -60.07)"/><path class="cls-1" d="M1395.88,817.83a44.55,44.55,0,0,1-44.55,44.55H77a44.56,44.56,0,0,1-44.56-44.55h0A44.56,44.56,0,0,1,77,773.27H1351.33a44.55,44.55,0,0,1,44.55,44.56Z" transform="translate(-32.45 -60.07)"/><path class="cls-1" d="M1334.39,901.38a28.5,28.5,0,0,1-28.5,28.5h-183a28.5,28.5,0,0,1-28.5-28.5h0a28.5,28.5,0,0,1,28.5-28.49h183a28.5,28.5,0,0,1,28.5,28.49Z" transform="translate(-32.45 -60.07)"/><path class="cls-1" d="M374.67,888.71A12.67,12.67,0,0,1,362,901.38H167.62A12.67,12.67,0,0,1,155,888.71h0A12.68,12.68,0,0,1,167.62,876H362a12.68,12.68,0,0,1,12.67,12.68Z" transform="translate(-32.45 -60.07)"/><path class="cls-1" d="M825.31,924.75a13.5,13.5,0,0,1-13.5,13.5H622.35a13.51,13.51,0,0,1-13.5-13.5h0a13.5,13.5,0,0,1,13.5-13.5H811.81a13.49,13.49,0,0,1,13.5,13.5Z" transform="translate(-32.45 -60.07)"/><path class="cls-2" d="M503.27,139a11.45,11.45,0,0,1,18.87,13l-37.72,54.92a5.09,5.09,0,0,0,9.1,4l.05-.08L546.26,134a11.45,11.45,0,0,1,18.87,13l-50,72.81a5.1,5.1,0,0,0,8.4,5.77l58.11-84.62a11.45,11.45,0,0,1,18.87,13l-58.26,84.83a5.09,5.09,0,0,0,8.53,5.55.23.23,0,0,1,.05,0l50-72.75a11.45,11.45,0,1,1,18.87,13L567,261.13a11.43,11.43,0,0,1-1.33,1.59L556.56,276l31.53-18.81A11.44,11.44,0,0,1,603.8,261c3.26,5.42,1.23,11.37-4.19,14.64l-54.29,48.16S494.85,361,481.2,357L413,310.09s7.44-49.12,25.93-77c4.75-7.15,8.55-12.8,11.58-17.26,0-.06.07-.12.11-.17Z" transform="translate(-32.45 -60.07)"/><path class="cls-2" d="M352,376.12c22.3-28.38,59.78-61.63,59.78-61.63l33.13,22.76.54.37,33.13,22.75S461,407.29,442.55,438.29c0,0,4.11,3-.05,7.46l-48.44-33.27-.54-.37-48.43-33.26C347.71,373.38,352,376.12,352,376.12Z" transform="translate(-32.45 -60.07)"/><path class="cls-3" d="M323.57,422,321,430.19,180.69,359.58c2.27-7.13,4.27-13.43,5.8-18.22Z" transform="translate(-32.45 -60.07)"/><path class="cls-3" d="M292.62,519.25l-3.52,11L132.17,512l6-18.87Z" transform="translate(-32.45 -60.07)"/><path class="cls-3" d="M145.93,468.79c1.51-4.76,3-9.42,4.41-13.86l152,33.81-.41,1.31-2.57,8.09Z" transform="translate(-32.45 -60.07)"/><path class="cls-3" d="M126.46,529.94c1.07-3.36,2.41-7.56,3.93-12.35L287.32,535.9l-3.57,11.2Z" transform="translate(-32.45 -60.07)"/><path class="cls-3" d="M319.22,435.67l-2.91,9.15-143-62,5.65-17.76Z" transform="translate(-32.45 -60.07)"/><path class="cls-3" d="M165.19,408.27l6.4-20.1,143,62-2.37,7.46Z" transform="translate(-32.45 -60.07)"/><path class="cls-3" d="M310.56,462.88l-1.46,4.57-1.33,4.2L158.18,430.29l3.15-9.88c.7-2.22,1.44-4.53,2.19-6.88Z" transform="translate(-32.45 -60.07)"/><path class="cls-3" d="M199,327.84l129.48,78.8-3.07,9.65L188.31,335.65l.87-2.74C192.92,321.15,199,327.84,199,327.84Z" transform="translate(-32.45 -60.07)"/><path class="cls-3" d="M297.62,503.52l-3.27,10.29L139.91,487.7c1.42-4.48,2.87-9,4.3-13.52Z" transform="translate(-32.45 -60.07)"/><path class="cls-3" d="M306.09,476.92l-2.07,6.5L152,449.61l2.1-6.6c.85-2.66,1.64-5.15,2.37-7.45Z" transform="translate(-32.45 -60.07)"/><path class="cls-3" d="M124.67,535.56,282,552.72l-2.41,7.57-150.42-13s-8.81,2-5.07-9.8C124.22,537,124.42,536.35,124.67,535.56Z" transform="translate(-32.45 -60.07)"/><path class="cls-4" d="M939.12,683.52a11.42,11.42,0,0,0-7.41-14.34l-559.11-178A11.42,11.42,0,0,0,365.67,513l559.11,178A11.42,11.42,0,0,0,939.12,683.52Zm-30.61-3.87a6.22,6.22,0,1,1,3.77-11.85l15.14,4.81a6.22,6.22,0,0,1-3.78,11.86Z" transform="translate(-32.45 -60.07)"/><path class="cls-5" d="M363.69,516.93a15.81,15.81,0,0,1,9.58-30.1c2.14-20.49-.53-56.71-38.74-81.09l-24.66,77.48L285.2,560.71C330.48,562.9,353.59,534.89,363.69,516.93Zm-63.78,25.78,37-116.3a3.52,3.52,0,0,1,6.71,2.14l-37,116.3a3.52,3.52,0,0,1-6.71-2.14Z" transform="translate(-32.45 -60.07)"/><path class="cls-6" d="M456.12,615.42c-33.09,9.3-43,42.39-30.88,61.13,0,0-71.68-14.06-95.94,8.41s-11,51.14,0,61.07c0,0-19.85,29.77-3.31,45.21s47.42,0,47.42,0,24.26,39.7,78.29,36.39,80.47-46.31,80.47-46.31,18.83,65.06,101,61.75,78.69-47.42,78.69-47.42,13.68,30.88,44.4,24.26,27.28-32,27.28-32,10.06,40.81,60.79,36.39S890.6,775.8,890.6,775.8s54,43,108.07,14.34,73.89-121.31,37.5-156.59-68.37-2.21-68.37-2.21-5.52-47.19-52.93-47.86-56.09,41.24-56.09,41.24-35.39-34.66-62.43-23.63L804.44,652s-23.47-17.12-26-4.55c0,0,44,24.28-129.51,14.91,0,0-41.25,40.5-52.83-.85,0,0-69.42,3.51-40.89-8.65l-1.65-21S489.2,606.11,456.12,615.42Z" transform="translate(-32.45 -60.07)"/><path class="cls-5" d="M681.52,353.76c-51.54,0-100-.93-136.49-2.62-17.82-.83-31.85-1.79-41.69-2.87a114.55,114.55,0,0,1-12-1.79c-2.49-.57-9.12-2.07-9.12-8.31s6.63-7.75,9.12-8.31a111.43,111.43,0,0,1,12-1.8c9.84-1.08,23.87-2,41.69-2.86,36.48-1.69,85-2.62,136.49-2.62s100,.93,136.49,2.62c17.83.82,31.86,1.78,41.7,2.86a111.43,111.43,0,0,1,12,1.8c2.49.56,9.11,2.06,9.11,8.31s-6.62,7.74-9.11,8.31a114.55,114.55,0,0,1-12,1.79c-9.84,1.08-23.87,2-41.7,2.87C781.54,352.83,733.07,353.76,681.52,353.76ZM554.13,338.17c35.15,1.44,80.32,2.23,127.39,2.23s92.25-.79,127.39-2.23c-35.14-1.44-80.31-2.24-127.39-2.24S589.28,336.73,554.13,338.17Z" transform="translate(-32.45 -60.07)"/><path class="cls-5" d="M850.94,403.84l9.77-50.6c-55.78,6.32-161.65,6.37-179.18,6.34H679c-17.53,0-123.39,0-179.18-6.34l9.78,50.6s-10.93,9.19,2.87,16.67l2.88,13.22s-10.35,7.47,0,17.82L547,659.09s5.11,25,132,25.86h2.49c126.93-.89,132-25.86,132-25.86l31.62-207.54c10.35-10.35,0-17.82,0-17.82l2.87-13.22C861.86,413,850.94,403.84,850.94,403.84Z" transform="translate(-32.45 -60.07)"/><path class="cls-5" d="M828.32,680.56c-.49-12.87-8.89-16.33-8.89-16.33C800.58,691.19,701,692,682.94,692v0l-1.42,0-1.41,0v0c-18.09.07-117.65-.77-136.49-27.73,0,0-8.4,3.46-8.9,16.33,0,0,10.24,28.78,145.39,30.15v0h2.83v0C818.09,709.34,828.32,680.56,828.32,680.56Z" transform="translate(-32.45 -60.07)"/><path class="cls-5" d="M496.24,353.24l3.62,36.38a16.82,16.82,0,0,1-12.07-14.14c-1.61-11.7-1.61-13.06-1.61-13.06S487,352.64,496.24,353.24Z" transform="translate(-32.45 -60.07)"/><path class="cls-7" d="M602.6,583.48h-.26c-12.91-1-21.82-9.69-29-16.65L572,565.48c-1.83-1.76-6.11-5.23-11.52-9.63-15.68-12.71-41.91-34-65-58.75-20.25-21.69-31.54-59.25-33.57-111.65,0-1-.07-1.77-.1-2.41-.55-11.53,6.85-16,10.83-16.8l.32-.06h15.58a3.34,3.34,0,0,1,0,6.68H473.63c-1.15.34-5.57,2.18-5.2,9.87,0,.65.06,1.48.1,2.46,2,50.75,12.66,86.87,31.78,107.35,22.8,24.41,48.81,45.52,64.36,58.13,5.75,4.67,9.91,8,11.94,10L578,562c6.72,6.54,14.35,14,24.85,14.79a3.33,3.33,0,0,1-.26,6.66Z" transform="translate(-32.45 -60.07)"/><path class="cls-5" d="M865.92,353.24l-3.63,36.38a16.82,16.82,0,0,0,12.08-14.14c1.61-11.7,1.61-13.06,1.61-13.06S875.21,352.64,865.92,353.24Z" transform="translate(-32.45 -60.07)"/><path class="cls-7" d="M759.56,583.48a3.33,3.33,0,0,1-.26-6.66c10.5-.84,18.13-8.25,24.85-14.79l1.39-1.35c2-2,6.2-5.34,12-10C813,538.06,839.05,517,861.85,492.54,881,472.06,891.66,436,893.63,385.19c0-1,.07-1.81.1-2.46.36-7.64-4-9.5-5.21-9.87H873.67a3.34,3.34,0,0,1,0-6.68h15.58l.31.06c4,.77,11.39,5.27,10.84,16.8,0,.64-.06,1.45-.1,2.41-2,52.4-13.32,90-33.57,111.65-23.12,24.75-49.35,46-65,58.75-5.41,4.4-9.69,7.87-11.51,9.63l-1.38,1.34c-7.17,7-16.08,15.63-29,16.65Z" transform="translate(-32.45 -60.07)"/><path class="cls-3" d="M687.45,563.57v38a3.65,3.65,0,0,1-3.77,3.59c-3.78.19-40.07-1.89-51-2.64s-16.82,3.59-22.87,1.7-7.18-4.35-7.18-4.35v-34s6-6.05,14-4.92a136.44,136.44,0,0,0,31.93,1.13c13.42-1.13,34.59-2.07,34.59-2.07S687.45,559.22,687.45,563.57Z" transform="translate(-32.45 -60.07)"/><path class="cls-3" d="M690.67,563.57v38a3.67,3.67,0,0,0,3.78,3.59c3.78.19,40.06-1.89,51-2.64s16.82,3.59,22.87,1.7,7.18-4.35,7.18-4.35v-34s-6-6.05-14-4.92a136.53,136.53,0,0,1-31.94,1.13C716.18,560.92,695,560,695,560S690.67,559.22,690.67,563.57Z" transform="translate(-32.45 -60.07)"/><path class="cls-6" d="M523.35,335.81s-21.42-16-10.54-40.12,38.08-17.34,38.08-17.34S545.45,251.5,575,229.06s66.63-5.44,76.83,15.3c0,0,6.9-21.42,28.44-24.14s32.08,18.36,32.42,27.54c0,0,16-46.58,63.57-48.28s80.57,47.26,59.83,84.65c0,0,39.78,20.4,13.94,51.68C850.05,335.81,644,355.18,523.35,335.81Z" transform="translate(-32.45 -60.07)"/><path class="cls-8" d="M530.29,322.58s-8.57-14,6.23-23.33" transform="translate(-32.45 -60.07)"/><path class="cls-8" d="M584.83,246.66s21.42-24.93,48.3-5.85" transform="translate(-32.45 -60.07)"/><path class="cls-8" d="M692.73,240.14s7.79,1.06,8.18,10" transform="translate(-32.45 -60.07)"/><path class="cls-8" d="M735.2,240.14A46.45,46.45,0,0,1,770.64,212" transform="translate(-32.45 -60.07)"/><path class="cls-8" d="M789.34,212s10.91-3,19.48,14.07" transform="translate(-32.45 -60.07)"/><path class="cls-9" d="M584.83,322.58s9.74-24.5,40.51-33.46S668.58,309,668.58,309s15.58-11.69,28.24-9.74a17.9,17.9,0,0,1,15,13.24" transform="translate(-32.45 -60.07)"/><path class="cls-9" d="M808.82,286s38.57,8.18,23.77,42.08" transform="translate(-32.45 -60.07)"/><path class="cls-9" d="M783.5,274.32s10.13,1.16,12.86,10.12" transform="translate(-32.45 -60.07)"/><path class="cls-8" d="M442.88,677s-7.77-24.27,10.68-37.38" transform="translate(-32.45 -60.07)"/><path class="cls-8" d="M478.72,628.58s7.09-1.1,14.3,6.07" transform="translate(-32.45 -60.07)"/><path class="cls-8" d="M345.29,731.69s-13.23-16,0-34.73" transform="translate(-32.45 -60.07)"/><path class="cls-8" d="M499.86,669.39s-17.28,37.49,38.41,50.72" transform="translate(-32.45 -60.07)"/><path class="cls-8" d="M432.41,806.68s25.38,11.58,53.77-8.82" transform="translate(-32.45 -60.07)"/><path class="cls-8" d="M562,724.52s11.58,7.17,29.78,7.17" transform="translate(-32.45 -60.07)"/><path class="cls-8" d="M639.17,820.46c3.86-.55,32.6,4.42,48.28-19.29" transform="translate(-32.45 -60.07)"/><path class="cls-8" d="M621,820.55s-14.89-.55-24.81-9.69" transform="translate(-32.45 -60.07)"/><path class="cls-8" d="M876.82,620.31c0-1.65,14.89-24.81,43.56-20.4" transform="translate(-32.45 -60.07)"/><path class="cls-8" d="M946.85,620.31a24.64,24.64,0,0,1,6.61,19.32" transform="translate(-32.45 -60.07)"/><path class="cls-8" d="M990.4,634.65s40.81-3.86,45.77,34.74" transform="translate(-32.45 -60.07)"/><path class="cls-8" d="M931.41,776.91S954,794,981,779.66" transform="translate(-32.45 -60.07)"/><path class="cls-8" d="M840.43,803.91s19.85,3.2,32-18.52" transform="translate(-32.45 -60.07)"/><path class="cls-8" d="M807.9,720.11c1.65,1.11,32-4.06,40.8-32.63" transform="translate(-32.45 -60.07)"/><circle class="cls-10" cx="370.97" cy="610.41" r="24.81" transform="translate(-341.35 769.43) rotate(-76.57)"/><path class="cls-6" d="M371,608a12.35,12.35,0,0,0-5.75,23.28,6.79,6.79,0,1,1,11.51,0A12.35,12.35,0,0,0,371,608Z" transform="translate(-32.45 -60.07)"/><path class="cls-6" d="M979,598.46a10.78,10.78,0,0,0-5.05-20.32,5.8,5.8,0,0,1,2.26,2.34A5.93,5.93,0,0,1,965.7,586a5.85,5.85,0,0,1-.67-3.19A10.79,10.79,0,0,0,979,598.46Z" transform="translate(-32.45 -60.07)"/><path class="cls-11" d="M506.72,597.65a23.35,23.35,0,1,1,10.87-2.71A23.29,23.29,0,0,1,506.72,597.65Zm0-43.35A20,20,0,1,0,516.05,592a20,20,0,0,0-9.37-37.72Z" transform="translate(-32.45 -60.07)"/><path class="cls-11" d="M507.7,576.21a10.78,10.78,0,0,0-5.05-20.32,5.93,5.93,0,1,1-8.89,4.7,10.78,10.78,0,0,0,13.94,15.62Z" transform="translate(-32.45 -60.07)"/><path class="cls-10" d="M881.27,853.31a21.67,21.67,0,1,1,29.28,9A21.66,21.66,0,0,1,881.27,853.31Z" transform="translate(-32.45 -60.07)"/><path class="cls-6" d="M901.43,845.08a10.78,10.78,0,0,0-5-20.32,5.93,5.93,0,1,1-8.89,4.7,10.78,10.78,0,0,0,13.94,15.62Z" transform="translate(-32.45 -60.07)"/><path class="cls-10" d="M502.38,853.31a21.66,21.66,0,1,1,29.28,9A21.66,21.66,0,0,1,502.38,853.31Z" transform="translate(-32.45 -60.07)"/><path class="cls-6" d="M522.54,845.08a10.78,10.78,0,0,0-5-20.32,5.93,5.93,0,1,1-8.23,7.89,5.84,5.84,0,0,1-.66-3.19,10.78,10.78,0,0,0,13.94,15.62Z" transform="translate(-32.45 -60.07)"/><path class="cls-10" d="M413.25,587.21a21.66,21.66,0,1,1,29.28,9A21.67,21.67,0,0,1,413.25,587.21Z" transform="translate(-32.45 -60.07)"/><path class="cls-6" d="M444.63,568.08a10.4,10.4,0,1,1-10.4-10.4A10.4,10.4,0,0,1,444.63,568.08Z" transform="translate(-32.45 -60.07)"/><path class="cls-10" d="M1026.92,581.94a21.67,21.67,0,1,1,29.28,9A21.68,21.68,0,0,1,1026.92,581.94Z" transform="translate(-32.45 -60.07)"/><path class="cls-6" d="M1058.3,562.81a10.4,10.4,0,1,1-10.39-10.4A10.4,10.4,0,0,1,1058.3,562.81Z" transform="translate(-32.45 -60.07)"/><path class="cls-10" d="M300.33,723.4A11.56,11.56,0,1,1,316,728.22,11.56,11.56,0,0,1,300.33,723.4Z" transform="translate(-32.45 -60.07)"/><path class="cls-6" d="M317.07,713.19a5.55,5.55,0,1,1-5.55-5.54A5.54,5.54,0,0,1,317.07,713.19Z" transform="translate(-32.45 -60.07)"/><path class="cls-10" d="M373.1,524.5a11.56,11.56,0,1,1,15.62,4.83A11.57,11.57,0,0,1,373.1,524.5Z" transform="translate(-32.45 -60.07)"/><path class="cls-6" d="M389.84,514.29a5.55,5.55,0,1,1-5.54-5.54A5.54,5.54,0,0,1,389.84,514.29Z" transform="translate(-32.45 -60.07)"/><path class="cls-11" d="M995.11,717.88a25.54,25.54,0,1,1,11.89-3A25.47,25.47,0,0,1,995.11,717.88Zm0-47.7A22.2,22.2,0,1,0,1005.45,712a22.19,22.19,0,0,0-10.38-41.82Z" transform="translate(-32.45 -60.07)"/><path class="cls-11" d="M1008.54,682.46A11.45,11.45,0,1,1,997.1,671,11.44,11.44,0,0,1,1008.54,682.46Z" transform="translate(-32.45 -60.07)"/><path class="cls-11" d="M674.76,755a11.45,11.45,0,1,1-11.45-11.44A11.45,11.45,0,0,1,674.76,755Z" transform="translate(-32.45 -60.07)"/><path class="cls-10" d="M936.62,512.94a11.56,11.56,0,1,1,15.62,4.82A11.58,11.58,0,0,1,936.62,512.94Z" transform="translate(-32.45 -60.07)"/><path class="cls-6" d="M953.37,502.73a5.55,5.55,0,1,1-5.55-5.55A5.56,5.56,0,0,1,953.37,502.73Z" transform="translate(-32.45 -60.07)"/><path class="cls-5" d="M113.48,672.51a15.68,15.68,0,0,0,15.67,15.67H288.88a15.67,15.67,0,1,0,0-31.34H129.15A15.68,15.68,0,0,0,113.48,672.51Zm12.67-1a8.82,8.82,0,0,1,8.82-8.82H186.8a8.82,8.82,0,0,1,0,17.64H135A8.82,8.82,0,0,1,126.15,671.48Z" transform="translate(-32.45 -60.07)"/><path class="cls-12" d="M308.05,672.51a15.56,15.56,0,0,0-1.15-5.88H484.45a5.88,5.88,0,0,1,0,11.76H306.9A15.56,15.56,0,0,0,308.05,672.51Z" transform="translate(-32.45 -60.07)"/><path class="cls-4" d="M338.6,682h8.59l-24.74,82.59H303.34Z" transform="translate(-32.45 -60.07)"/><path class="cls-4" d="M440.65,682h11.61l30.15,82.59h-19.8Z" transform="translate(-32.45 -60.07)"/><path class="cls-4" d="M437.07,764.62H422.52L408.64,682h9.86Z" transform="translate(-32.45 -60.07)"/><path class="cls-4" d="M501.24,764.62h-13L458.13,682h11.76Z" transform="translate(-32.45 -60.07)"/><path class="cls-4" d="M353,682h9.59l-15.7,82.59H328.21Z" transform="translate(-32.45 -60.07)"/><path class="cls-4" d="M373.55,764.62H352.46L368.15,682H376Z" transform="translate(-32.45 -60.07)"/><path class="cls-4" d="M381.5,682h9.2l6,82.59H379.07Z" transform="translate(-32.45 -60.07)"/><path class="cls-4" d="M286.66,756.81,322.48,682h10.13l-35.27,82.59h-2.87C282.13,764.62,286.66,756.81,286.66,756.81Z" transform="translate(-32.45 -60.07)"/><path class="cls-4" d="M424.15,682h10.79l22,82.59H442.72Z" transform="translate(-32.45 -60.07)"/><path class="cls-4" d="M396.23,682h6.82l13.88,82.59H402.19Z" transform="translate(-32.45 -60.07)"/><path class="cls-4" d="M507.14,764.62,475.78,682h8L517,756.81s4.53,7.81-7.8,7.81Z" transform="translate(-32.45 -60.07)"/><path class="cls-2" d="M900.49,166.06a11.45,11.45,0,0,0-18.87,13l37.72,54.92a5.09,5.09,0,0,1-9.1,3.95.56.56,0,0,1,0-.08L857.5,161.1a11.45,11.45,0,0,0-18.87,13l50,72.81a5.09,5.09,0,1,1-8.39,5.76L822.12,168a11.45,11.45,0,0,0-18.87,13l58.26,84.83a5.09,5.09,0,0,1-8.53,5.55l-.05-.06-50-72.74a11.45,11.45,0,1,0-18.87,13l52.68,76.71a11.43,11.43,0,0,0,1.33,1.59l9.09,13.23-31.53-18.81a11.45,11.45,0,0,0-15.71,3.9c-3.26,5.42-1.23,11.37,4.19,14.63l54.29,48.17s50.47,37.18,64.12,33.12l68.24-46.87s-7.44-49.12-25.93-77c-4.75-7.15-8.55-12.8-11.58-17.26l-.11-.18Z" transform="translate(-32.45 -60.07)"/><path class="cls-2" d="M1051.73,403.22c-22.3-28.38-59.78-61.63-59.78-61.63l-33.13,22.75-.54.37-33.13,22.76s17.58,46.92,36.06,77.92c0,0-4.1,3,0,7.46l48.44-33.27.54-.37,48.44-33.27C1056.05,400.48,1051.73,403.22,1051.73,403.22Z" transform="translate(-32.45 -60.07)"/><polygon class="cls-12" points="978.48 659.69 1138.54 659.69 1128.13 687.8 988.81 687.8 978.48 659.69"/><polygon class="cls-12" points="988.81 691.05 942.34 741.53 1174.49 741.53 1128.64 691.05 988.81 691.05"/><polygon class="cls-5" points="978.48 659.69 993.4 650.51 1120.76 650.51 1138.54 659.69 978.48 659.69"/><polygon class="cls-5" points="978.48 659.69 946.54 706.66 940.88 739.19 988.81 687.8 978.48 659.69"/><polygon class="cls-5" points="1138.46 659.69 1170.4 706.66 1176.06 739.19 1128.13 687.8 1138.46 659.69"/><path class="cls-3" d="M1075.22,715.17h32.58s-3.82-10.6-10.92-12.5h-12S1077.65,705.14,1075.22,715.17Z" transform="translate(-32.45 -60.07)"/><path class="cls-5" d="M1090.87,253.6a6.89,6.89,0,0,0-6.89,6.88V698.53h13.77v-438A6.88,6.88,0,0,0,1090.87,253.6Zm0,15.66a4.53,4.53,0,1,1,4.52-4.52A4.52,4.52,0,0,1,1090.87,269.26Z" transform="translate(-32.45 -60.07)"/><polygon class="cls-5" points="931.04 457.87 919.2 451.23 909.2 455.24 928.14 466.82 931.04 457.87"/><path class="cls-5" d="M893.8,540.59s1.59-4.92,3.19-9.85,5.28-5.52,5.28-5.52l14.81,4.16a.78.78,0,0,0,0-.09l1.06.39,1.08.31,0,.08,14.44,5.31s2.64,2.65,1,7.57l-3.18,9.84s.62,2.92-6.85.51c-5.64-1.83-10.78-3.16-12.88-3.93-2.15-.6-7.09-2.54-12.74-4.37C891.59,542.59,893.8,540.59,893.8,540.59Z" transform="translate(-32.45 -60.07)"/><path class="cls-12" d="M881.15,486.86l-1,3,16.05,5.2,12.63,13c1.32-5.48,7.65-16.63,17.13-12.19s5.1,19.39,5.1,19.39l6.18,2c1.54.5,4.51-.76,4.51-.76l14.5-5.72a18.51,18.51,0,0,1,4.67,2.14,3.26,3.26,0,0,1,1.35,4.63l-3.53,10.92,4.45,1.44s5.17,20.16,16.07,30.65,16.68,10.85,18,10.22-5.47-11.24-11.68-23.79-8.13-34.52-8.13-34.52,3.78-1.72,4-3.44-2.92-10.6-2.92-10.6l17.4-1.87s3.33-.08,3.15-7.82-5.48-9.55-5.48-9.55l-17.32-1.14c-45.65-9.31-79.94,13.71-79.94,13.71ZM901.64,494l13.45-5.71s2.17,4.74,1.63,5a13.41,13.41,0,0,0-8.13,8.8Z" transform="translate(-32.45 -60.07)"/><path class="cls-12" d="M900.53,521.74a3,3,0,0,0,1.93,3.78l30,9.73a3,3,0,0,0,3.78-1.94h0a3,3,0,0,0-1.93-3.78l-30.06-9.72a3,3,0,0,0-3.77,1.93Z" transform="translate(-32.45 -60.07)"/><path class="cls-12" d="M933.66,531.25l3.53-10.9-9.14-3s2.76-8.44,1.18-14.47-10.76-8.14-14.21-2.27c0,0-2.27,3.12-4.33,10.09S907,522.05,907,522.05Z" transform="translate(-32.45 -60.07)"/><path class="cls-5" d="M999.12,488.77c.18,7.74-3.15,7.82-3.15,7.82l-17.4,1.87s.18.51.44,1.29a16.36,16.36,0,0,1-4.92-9.72,21.41,21.41,0,0,1,2.23-11.95l17.32,1.14S999,481,999.12,488.77Z" transform="translate(-32.45 -60.07)"/><path class="cls-12" d="M939.29,642.81c-32.26-26.82-10.6-86-10.6-86-14-3.42-17.68-5-17.68-5s-4-.89-17.27-6.3c0,0-17.1,60.64-59,63.48,0,0-11.69,1.33-16,12.56l-25.13,77.68.15.08c.63.34,59.46,32.47,125.7,40.68h.29l25.11-77.64C948,650.73,939.29,642.81,939.29,642.81Z" transform="translate(-32.45 -60.07)"/><path class="cls-12" d="M794.16,702c1.27,2.65,3.53,7.94,3.79,12.42.36,6.25,4,12.89,14.24,20.3S846.88,750,846.88,750,871.34,758,884,758s19.47-3.26,23.43-8.12c2.83-3.46,7.74-6.42,10.33-7.83C857.3,734.17,803.38,706.86,794.16,702Z" transform="translate(-32.45 -60.07)"/><path class="cls-2" d="M1167.59,647.38c0,3.72-2.17,6.75-4.84,6.75h0c-2.68,0-4.84-3-4.84-6.75V506.25c0-3.73,2.16-6.75,4.84-6.75h0c2.67,0,4.84,3,4.84,6.75Z" transform="translate(-32.45 -60.07)"/><path class="cls-5" d="M1209.86,352.57c1.06-17.31-10.25-21.75-10.25-21.75a17.07,17.07,0,0,0-7.42-13.58c-7.77-5.65-21.55-2.12-21.55-2.12s-5.31-3.35-10.05-2.55c-4.75-.8-10.06,2.55-10.06,2.55s-13.78-3.53-21.55,2.12a17.07,17.07,0,0,0-7.42,13.58s-11.3,4.44-10.25,21.75,15.9,20.14,15.9,20.14a10.17,10.17,0,0,0-5.3,7.77c-.7,5.66,3.54,12.72,3.54,12.72s-13.43,12-11.31,27.21,12.37,19.78,12.37,19.78-6.36,2.83-5.65,8.13a10,10,0,0,0,4.94,7.42c-5,3.88-10.25,8.12-8.48,17.31s13.07,13.43,13.07,13.43-10.6,2.47-9.18,19.07,23,17.32,23,17.32H1177s21.55-.71,23-17.32-9.18-19.07-9.18-19.07,11.3-4.24,13.07-13.43-3.53-13.43-8.48-17.31a10,10,0,0,0,5-7.42c.7-5.3-5.66-8.13-5.66-8.13s10.25-4.59,12.37-19.78-11.31-27.21-11.31-27.21,4.24-7.06,3.54-12.72a10.17,10.17,0,0,0-5.3-7.77S1208.8,369.88,1209.86,352.57Z" transform="translate(-32.45 -60.07)"/><path class="cls-11" d="M1134.35,365.7a2.68,2.68,0,0,1-1.34-.35c-.15-.09-15.06-8.69-7.44-28.19a2.76,2.76,0,0,1,5.14,2c-5.83,14.92,4.56,21.12,5,21.37a2.76,2.76,0,0,1-1.36,5.16Z" transform="translate(-32.45 -60.07)"/><path class="cls-11" d="M1179.1,378.09a2.75,2.75,0,0,1-2.17-1,2.77,2.77,0,0,1,.46-3.88c12.34-9.69,5-23.86,4.72-24.46a2.76,2.76,0,1,1,4.88-2.58c3.43,6.48,6.55,21.38-6.19,31.38A2.75,2.75,0,0,1,1179.1,378.09Z" transform="translate(-32.45 -60.07)"/><path class="cls-11" d="M1149.74,401.75a27.32,27.32,0,0,1-11.7-2.82,2.75,2.75,0,1,1,2.57-4.87h0c.09.05,9.28,4.75,16.49.12a2.76,2.76,0,0,1,3,4.64A18.84,18.84,0,0,1,1149.74,401.75Z" transform="translate(-32.45 -60.07)"/><path class="cls-11" d="M1179.09,435.3a2.76,2.76,0,0,1-.82-5.39c7.53-2.35,6.31-11.47,6.26-11.85a2.76,2.76,0,0,1,5.45-.82c.74,4.88-.41,14.92-10.06,17.93A2.66,2.66,0,0,1,1179.09,435.3Z" transform="translate(-32.45 -60.07)"/><path class="cls-11" d="M1136.84,453.94a2.73,2.73,0,0,1-2.08-.95c-7.63-8.8-3.34-18.41,0-22.26a2.76,2.76,0,0,1,4.17,3.61c-.67.78-6.27,7.81,0,15a2.75,2.75,0,0,1-2.08,4.56Z" transform="translate(-32.45 -60.07)"/><path class="cls-11" d="M1136.84,485h-.23c-3.52-.29-5.25-2-6.08-3.41-2.31-3.89-.07-9.25.2-9.85a2.76,2.76,0,1,1,5,2.21c-.6,1.38-1.11,3.82-.51,4.82.25.41.85.66,1.8.74a2.75,2.75,0,0,1-.23,5.5Z" transform="translate(-32.45 -60.07)"/><path class="cls-11" d="M1184.55,511a3,3,0,0,1-.72-.1,2.75,2.75,0,0,1-1.94-3.38c3-11.2-3.08-14-3.79-14.32a2.78,2.78,0,0,1-1.56-3.56,2.73,2.73,0,0,1,3.51-1.59c4,1.49,10.71,7.78,7.16,20.91A2.75,2.75,0,0,1,1184.55,511Z" transform="translate(-32.45 -60.07)"/><path class="cls-11" d="M1143.05,325.34a2.76,2.76,0,0,1-.81-5.39c1.13-.36,11.24-3.33,17.68.21a2.76,2.76,0,0,1-2.66,4.83c-3.73-2.05-11.1-.49-13.39.22A2.6,2.6,0,0,1,1143.05,325.34Z" transform="translate(-32.45 -60.07)"/><rect class="cls-6" x="1125.45" y="467.94" width="9.68" height="5.99"/><rect class="cls-6" x="1125.45" y="479.53" width="9.68" height="5.99"/><rect class="cls-6" x="1125.45" y="491.11" width="9.68" height="5.99"/><rect class="cls-6" x="1125.45" y="502.69" width="9.68" height="5.99"/><rect class="cls-6" x="1125.45" y="514.28" width="9.68" height="5.99"/><rect class="cls-6" x="1125.45" y="525.86" width="9.68" height="5.99"/><rect class="cls-6" x="1125.45" y="537.45" width="9.68" height="5.99"/><rect class="cls-6" x="1125.45" y="549.03" width="9.68" height="5.99"/><rect class="cls-6" x="1125.45" y="560.62" width="9.68" height="5.99"/><rect class="cls-6" x="1127.3" y="586.49" width="4.83" height="20.31"/><circle class="cls-6" cx="267.62" cy="201.2" r="18.11"/><path class="cls-6" d="M396.23,150.44a12.63,12.63,0,1,1-12.63-12.63A12.62,12.62,0,0,1,396.23,150.44Z" transform="translate(-32.45 -60.07)"/><circle class="cls-6" cx="1009.07" cy="105.65" r="45.58" transform="translate(-37.96 42.81) rotate(-5.82)"/><path class="cls-6" d="M1021.47,226.27a7.35,7.35,0,1,1-7.35-7.35A7.35,7.35,0,0,1,1021.47,226.27Z" transform="translate(-32.45 -60.07)"/><path class="cls-6" d="M287.32,613.82a14.47,14.47,0,1,1-14.47-14.47A14.47,14.47,0,0,1,287.32,613.82Z" transform="translate(-32.45 -60.07)"/><path class="cls-6" d="M705.42,128.33A15.33,15.33,0,1,1,690.09,113,15.33,15.33,0,0,1,705.42,128.33Z" transform="translate(-32.45 -60.07)"/><path class="cls-6" d="M258.38,782.94A27.92,27.92,0,1,1,230.47,755,27.92,27.92,0,0,1,258.38,782.94Z" transform="translate(-32.45 -60.07)"/><path class="cls-6" d="M332.61,824.2a8.49,8.49,0,1,1-8.49-8.49A8.49,8.49,0,0,1,332.61,824.2Z" transform="translate(-32.45 -60.07)"/><path class="cls-6" d="M1149,639.54a18.86,18.86,0,1,1-18.86-18.86A18.85,18.85,0,0,1,1149,639.54Z" transform="translate(-32.45 -60.07)"/><path class="cls-6" d="M1307.27,237.78a18.86,18.86,0,1,1-18.86-18.86A18.86,18.86,0,0,1,1307.27,237.78Z" transform="translate(-32.45 -60.07)"/><path class="cls-6" d="M1269.56,700.32A15.36,15.36,0,1,1,1254.2,685,15.36,15.36,0,0,1,1269.56,700.32Z" transform="translate(-32.45 -60.07)"/><path class="cls-6" d="M244.42,163.06a15.36,15.36,0,1,1-15.36-15.36A15.35,15.35,0,0,1,244.42,163.06Z" transform="translate(-32.45 -60.07)"/></svg>