<?xml version="1.0" encoding="utf-8"?>
<!-- Generator: Adobe Illustrator 24.1.0, SVG Export Plug-In . SVG Version: 6.00 Build 0)  -->
<svg version="1.1" id="Layer_1" xmlns="http://www.w3.org/2000/svg" xmlns:xlink="http://www.w3.org/1999/xlink" x="0px" y="0px"
	 viewBox="0 0 536.7 167.6" style="enable-background:new 0 0 536.7 167.6;" xml:space="preserve">
<style type="text/css">
	.st0{enable-background:new    ;}
	.st1{fill:#1F6CDD;}
	.st2{fill:none;stroke:#D63E3E;stroke-width:7;stroke-miterlimit:10;}
	.st3{fill:none;stroke:#D63E3E;stroke-width:6;stroke-miterlimit:10;}
</style>
<g class="st0">
	<path class="st1" d="M178.5,35.4c0,5.5-1.7,9.8-5.2,12.7c-3.5,2.9-8.4,4.4-14.7,4.4h-4.7v18.3H143V19.3h16.4c6.2,0,11,1.3,14.2,4
		C176.9,26,178.5,30,178.5,35.4z M153.9,43.5h3.6c3.4,0,5.9-0.7,7.5-2c1.7-1.3,2.5-3.3,2.5-5.8c0-2.6-0.7-4.4-2.1-5.7
		c-1.4-1.2-3.6-1.8-6.6-1.8h-5V43.5z"/>
	<path class="st1" d="M201.9,51v19.7H191V19.3h15c7,0,12.2,1.3,15.5,3.8c3.4,2.5,5,6.4,5,11.6c0,3-0.8,5.7-2.5,8.1
		c-1.7,2.4-4,4.2-7.1,5.5c7.7,11.6,12.8,19,15.1,22.4H220L207.7,51H201.9z M201.9,42.1h3.5c3.4,0,6-0.6,7.6-1.7
		c1.6-1.1,2.5-3,2.5-5.4c0-2.4-0.8-4.2-2.5-5.2c-1.7-1-4.3-1.5-7.8-1.5h-3.3V42.1z"/>
	<path class="st1" d="M288,45c0,8.5-2.1,15-6.3,19.6s-10.3,6.9-18.1,6.9s-13.9-2.3-18.1-6.9S239,53.4,239,44.9s2.1-15.1,6.3-19.6
		s10.3-6.8,18.2-6.8s13.9,2.3,18.1,6.8S288,36.4,288,45z M250.5,45c0,5.7,1.1,10.1,3.3,13s5.4,4.4,9.8,4.4c8.7,0,13-5.8,13-17.3
		c0-11.6-4.3-17.4-13-17.4c-4.3,0-7.6,1.5-9.8,4.4S250.5,39.2,250.5,45z"/>
	<path class="st1" d="M336.9,35.4c0,5.5-1.7,9.8-5.2,12.7s-8.4,4.4-14.7,4.4h-4.7v18.3h-10.9V19.3h16.4c6.2,0,11,1.3,14.2,4
		S336.9,30,336.9,35.4z M312.3,43.5h3.6c3.4,0,5.9-0.7,7.5-2s2.5-3.3,2.5-5.8c0-2.6-0.7-4.4-2.1-5.7s-3.6-1.8-6.6-1.8h-5V43.5z"/>
	<path class="st1" d="M379.1,70.7h-29.6V19.3h29.6v8.9h-18.7v11.3h17.4v8.9h-17.4v13.3h18.7V70.7z"/>
	<path class="st1" d="M403.5,51v19.7h-10.9V19.3h15c7,0,12.2,1.3,15.5,3.8s5,6.4,5,11.6c0,3-0.8,5.7-2.5,8.1s-4,4.2-7.1,5.5
		c7.7,11.6,12.8,19,15.1,22.4h-12.1L409.3,51H403.5z M403.5,42.1h3.5c3.4,0,6-0.6,7.6-1.7s2.5-3,2.5-5.4c0-2.4-0.8-4.2-2.5-5.2
		s-4.3-1.5-7.8-1.5h-3.3V42.1z"/>
	<path class="st1" d="M462.8,70.7h-10.9V28.4h-14v-9.1h38.8v9.1h-14V70.7z"/>
	<path class="st1" d="M503.4,40.5l10.7-21.2h11.7l-17.1,31.4v20H498V51.1L481,19.3h11.8L503.4,40.5z"/>
</g>
<g class="st0">
	<path class="st1" d="M183.9,88.3v33.3c0,3.8-0.8,7.1-2.5,10c-1.7,2.9-4.2,5.1-7.4,6.6c-3.2,1.5-7,2.3-11.4,2.3
		c-6.6,0-11.7-1.7-15.4-5.1s-5.5-8-5.5-13.9V88.3h10.9v31.5c0,4,0.8,6.9,2.4,8.7c1.6,1.9,4.2,2.8,7.9,2.8c3.6,0,6.1-0.9,7.8-2.8
		c1.6-1.9,2.4-4.8,2.4-8.8V88.3H183.9z"/>
	<path class="st1" d="M232,104.4c0,5.5-1.7,9.8-5.2,12.7c-3.5,2.9-8.4,4.4-14.7,4.4h-4.7v18.3h-10.9V88.3h16.4c6.2,0,11,1.3,14.2,4
		C230.4,95,232,99,232,104.4z M207.4,112.5h3.6c3.4,0,5.9-0.7,7.5-2c1.7-1.3,2.5-3.3,2.5-5.8c0-2.6-0.7-4.4-2.1-5.7
		c-1.4-1.2-3.6-1.8-6.6-1.8h-5V112.5z"/>
	<path class="st1" d="M283,139.7h-12.4l-13.5-21.7l-4.6,3.3v18.4h-10.9V88.3h10.9v23.5l4.3-6l13.9-17.5h12.1L265,111.1L283,139.7z"
		/>
	<path class="st1" d="M319.1,139.7h-29.6V88.3h29.6v8.9h-18.7v11.3h17.4v8.9h-17.4v13.3h18.7V139.7z"/>
	<path class="st1" d="M359.4,139.7h-29.6V88.3h29.6v8.9h-18.7v11.3h17.4v8.9h-17.4v13.3h18.7V139.7z"/>
	<path class="st1" d="M405.7,104.4c0,5.5-1.7,9.8-5.2,12.7s-8.4,4.4-14.7,4.4H381v18.3h-10.9V88.3h16.4c6.2,0,11,1.3,14.2,4
		S405.7,99,405.7,104.4z M381,112.5h3.6c3.4,0,5.9-0.7,7.5-2s2.5-3.3,2.5-5.8c0-2.6-0.7-4.4-2.1-5.7s-3.6-1.8-6.6-1.8h-5V112.5z"/>
	<path class="st1" d="M479.7,139.7h-13.9l-22.4-38.9h-0.3c0.4,6.9,0.7,11.8,0.7,14.7v24.2h-9.7V88.3h13.7l22.3,38.5h0.2
		c-0.4-6.7-0.5-11.4-0.5-14.2V88.3h9.8V139.7z"/>
	<path class="st1" d="M526.1,139.7h-38.2v-7.1l24.6-35.3h-24v-9h36.9v7l-24.6,35.4h25.3V139.7z"/>
</g>
<line class="st2" x1="18.2" y1="62.4" x2="18.2" y2="140.8"/>
<line class="st2" x1="119.7" y1="62.7" x2="119.7" y2="140.7"/>
<line class="st2" x1="17.1" y1="65" x2="71.2" y2="15.2"/>
<line class="st2" x1="120.8" y1="65.4" x2="68.8" y2="17.7"/>
<line class="st3" x1="56.1" y1="140.2" x2="56.1" y2="95.5"/>
<line class="st3" x1="82" y1="140.2" x2="82" y2="95.5"/>
<line class="st3" x1="53.2" y1="95.5" x2="85" y2="95.5"/>
<line class="st3" x1="92.1" y1="38" x2="92.1" y2="19.8"/>
<line class="st3" x1="106.1" y1="52" x2="106.1" y2="19.8"/>
<line class="st3" x1="89.1" y1="19.8" x2="109.1" y2="19.8"/>
<line class="st2" x1="123.2" y1="140.7" x2="14.7" y2="140.9"/>
</svg>
